<svg width="500" height="500" viewBox="0 0 500 500" fill="none" xmlns="http://www.w3.org/2000/svg">
<g clip-path="url(#clip0)">
<path d="M258.266 34.7759C167.84 77.3557 115.066 154.843 98.6291 248.671C95.3679 267.288 158.109 281.736 159.073 296.751C160.147 313.474 115.845 353.254 88.97 366.273C57.4899 402.556 51.0063 459.515 36.1266 507.907L263.216 515.141L258.266 34.7759Z" fill="#1D1008"/>
<path d="M258.266 34.7759C348.691 77.3557 401.466 154.843 417.902 248.671C421.164 267.288 358.423 281.736 357.459 296.751C356.385 313.474 400.687 353.254 427.562 366.273C459.042 402.556 465.525 459.515 480.405 507.907L253.315 515.141L258.266 34.7759Z" fill="#1D1008"/>
<path d="M259.014 173.865C271.681 169.569 226.822 171.944 225.255 166.708C223.286 160.127 254.382 151.155 254.029 147.165C253.269 138.579 199.938 151.811 196.327 147.3C187.677 136.494 257.117 59.1662 257.117 59.1662L240.31 59.1657L249.897 48.7714C137.111 100.71 100.354 228.47 102.345 250.443C103.86 259.417 159.844 278.263 165.882 295.367C171.521 275.146 116.624 254.989 120.892 248.738C161.129 212.663 227.246 184.637 259.014 173.865V173.865Z" fill="#301C0D"/>
<path d="M262.554 205.089C261.064 219.355 262.55 233.755 262.19 248.095C262.17 248.903 262.143 249.718 261.949 250.503C261.756 251.288 261.382 252.05 260.769 252.577C260.257 253.016 259.607 253.268 258.946 253.4C258.285 253.531 257.607 253.549 256.933 253.568C254.369 253.641 251.783 253.731 249.259 253.273C246.735 252.816 244.242 251.759 242.515 249.863C241.585 248.843 240.898 247.595 240.582 246.251C240.266 244.908 240.328 243.471 240.804 242.175C241.417 240.507 242.665 239.155 243.983 237.963C245.3 236.771 246.726 235.681 247.853 234.307C250.246 231.389 251.051 227.515 251.685 223.795C252.32 220.075 252.912 216.206 255.002 213.064C255.702 212.01 256.556 211.066 257.289 210.034C258.022 209.002 258.644 207.848 258.79 206.59C258.915 205.52 258.688 204.423 258.89 203.364C258.991 202.834 259.207 202.315 259.582 201.928C259.77 201.734 259.996 201.577 260.247 201.478C260.498 201.38 260.773 201.342 261.04 201.381C261.407 201.435 261.746 201.633 261.998 201.905C262.251 202.176 262.421 202.519 262.519 202.876C262.715 203.592 262.632 204.35 262.554 205.089L262.554 205.089Z" fill="#301C0D"/>
<path d="M151.793 330.111C131.962 341.786 114.678 357.28 95.7281 370.337C93.6013 371.802 91.4467 373.242 89.5055 374.946C84.0853 379.702 80.6083 386.25 77.4845 392.75C76.2781 395.26 75.0982 397.809 74.4694 400.523C74.3452 401.058 74.2426 401.614 74.337 402.155C74.3842 402.426 74.4817 402.69 74.6396 402.916C74.7975 403.14 75.0177 403.325 75.2749 403.422C75.5455 403.524 75.8485 403.526 76.1279 403.452C76.4073 403.378 76.6639 403.23 76.8862 403.046C77.3307 402.676 77.6345 402.169 77.9455 401.682C80.7698 397.256 84.866 393.691 89.5278 391.276C91.9348 390.029 94.4841 389.082 96.9448 387.945C99.4055 386.808 101.812 385.455 103.725 383.534C105.58 381.67 106.898 379.346 108.102 377.008C109.306 374.669 110.428 372.27 111.975 370.143C114.016 367.335 116.728 365.094 119.452 362.94C128.062 356.133 137.236 349.74 143.855 340.984C145.285 339.092 146.588 337.099 148.141 335.306C149.694 333.513 151.535 331.904 153.736 331.018C154.024 330.902 154.323 330.795 154.562 330.597C154.682 330.497 154.784 330.375 154.848 330.234C154.911 330.092 154.934 329.93 154.899 329.779C154.864 329.633 154.776 329.502 154.66 329.407C154.544 329.312 154.402 329.251 154.255 329.223C153.961 329.165 153.656 329.23 153.372 329.327C152.814 329.515 152.301 329.813 151.793 330.112L151.793 330.111Z" fill="#301C0D"/>
<path d="M261.365 266.749C259.559 266.198 257.621 266.082 255.763 266.416C254.274 266.684 252.851 267.231 251.442 267.783C244.982 270.317 238.51 273.052 231.643 274.052C229.993 274.292 228.328 274.43 226.681 274.691C226.061 274.789 225.431 274.909 224.879 275.211C224.604 275.362 224.351 275.558 224.153 275.802C223.955 276.046 223.814 276.339 223.767 276.65C223.693 277.143 223.863 277.651 224.146 278.062C224.429 278.473 224.818 278.799 225.22 279.094C227.831 281.007 231.109 281.764 234.323 282.14C237.538 282.515 240.801 282.558 243.962 283.252C244.665 283.407 245.372 283.598 245.987 283.971C246.295 284.158 246.578 284.389 246.805 284.669C247.032 284.948 247.202 285.276 247.281 285.627C247.366 286.009 247.341 286.411 247.239 286.789C247.136 287.167 246.958 287.521 246.742 287.848C246.127 288.774 245.214 289.469 244.237 290C243.26 290.53 242.211 290.912 241.183 291.335C239.582 291.991 238.009 292.757 236.648 293.824C236.17 294.198 235.715 294.615 235.391 295.128C235.066 295.64 234.882 296.261 234.982 296.86C235.048 297.251 235.232 297.618 235.486 297.924C235.74 298.229 236.06 298.475 236.408 298.666C237.103 299.05 237.893 299.219 238.668 299.391C244.92 300.784 251.13 302.776 256.505 306.261C256.778 306.438 257.049 306.619 257.342 306.762C257.634 306.905 257.951 307.009 258.276 307.021C258.583 307.033 258.889 306.962 259.171 306.84C259.453 306.718 259.711 306.546 259.95 306.353C260.427 305.967 260.829 305.496 261.297 305.099C261.88 304.604 262.555 304.233 263.212 303.844C263.87 303.455 264.524 303.038 265.038 302.473C265.64 301.812 266.02 300.981 266.328 300.142C266.636 299.303 266.881 298.439 267.258 297.629C267.617 296.86 268.089 296.151 268.5 295.408C268.911 294.666 269.265 293.872 269.353 293.028C269.483 291.781 269.028 290.558 268.826 289.321C268.725 288.702 268.687 288.064 268.818 287.451C268.948 286.838 269.259 286.249 269.757 285.868C270.278 285.469 270.946 285.332 271.586 285.185C271.905 285.111 272.225 285.032 272.53 284.91C272.834 284.788 273.125 284.621 273.358 284.39C273.785 283.967 273.987 283.358 274.025 282.759C274.064 282.159 273.954 281.561 273.836 280.972C273.743 280.509 273.643 280.042 273.643 279.57C273.643 279.097 273.75 278.61 274.034 278.232C274.234 277.966 274.509 277.767 274.78 277.572C275.05 277.377 275.324 277.175 275.518 276.905C275.804 276.507 275.89 275.99 275.823 275.505C275.757 275.02 275.548 274.565 275.289 274.15C274.508 272.902 273.277 271.992 271.963 271.331C270.648 270.669 269.235 270.231 267.853 269.726C265.615 268.909 263.443 267.912 261.365 266.749L261.365 266.749Z" fill="#301C0D"/>
</g>
<defs>
<clipPath id="clip0">
<rect width="500" height="500" fill="white"/>
</clipPath>
</defs>
</svg>
