<?xml version="1.0" encoding="UTF-8" standalone="no"?>
<svg
   xmlns:dc="http://purl.org/dc/elements/1.1/"
   xmlns:cc="http://creativecommons.org/ns#"
   xmlns:rdf="http://www.w3.org/1999/02/22-rdf-syntax-ns#"
   xmlns:svg="http://www.w3.org/2000/svg"
   xmlns="http://www.w3.org/2000/svg"
   xmlns:sodipodi="http://sodipodi.sourceforge.net/DTD/sodipodi-0.dtd"
   xmlns:inkscape="http://www.inkscape.org/namespaces/inkscape"
   width="500"
   height="500"
   viewBox="0 0 132.29166 132.29167"
   version="1.1"
   id="svg16"
   inkscape:version="1.0.2 (1.0.2+r75+1)"
   sodipodi:docname="default_blue.svg">
  <defs
     id="defs10">
    <inkscape:path-effect
       effect="spiro"
       id="path-effect945"
       is_visible="true"
       lpeversion="1" />
    <inkscape:path-effect
       effect="spiro"
       id="path-effect941"
       is_visible="true"
       lpeversion="1" />
    <inkscape:path-effect
       effect="spiro"
       id="path-effect937"
       is_visible="true"
       lpeversion="1" />
    <inkscape:path-effect
       effect="spiro"
       id="path-effect933"
       is_visible="true"
       lpeversion="1" />
    <inkscape:path-effect
       effect="spiro"
       id="path-effect925"
       is_visible="true"
       lpeversion="1" />
  </defs>
  <sodipodi:namedview
     id="base"
     pagecolor="#000210"
     bordercolor="#666666"
     borderopacity="1.0"
     inkscape:pageopacity="0"
     inkscape:pageshadow="2"
     inkscape:zoom="0.7"
     inkscape:cx="137.99292"
     inkscape:cy="305.90264"
     inkscape:document-units="mm"
     inkscape:current-layer="layer1"
     showgrid="false"
     units="px"
     inkscape:window-width="1920"
     inkscape:window-height="1016"
     inkscape:window-x="0"
     inkscape:window-y="0"
     inkscape:window-maximized="1"
     inkscape:document-rotation="0" />
  <metadata
     id="metadata13">
    <rdf:RDF>
      <cc:Work
         rdf:about="">
        <dc:format>image/svg+xml</dc:format>
        <dc:type
           rdf:resource="http://purl.org/dc/dcmitype/StillImage" />
        <dc:title></dc:title>
      </cc:Work>
    </rdf:RDF>
  </metadata>
  <g
     inkscape:label="Layer 1"
     inkscape:groupmode="layer"
     id="layer1"
     transform="translate(0,-164.70832)">
    <path
       style="fill:#0c081d;stroke:none;stroke-width:0.264583px;stroke-linecap:butt;stroke-linejoin:miter;stroke-opacity:1;fill-opacity:1"
       d="m 68.332831,173.90944 c -23.925043,11.2659 -37.888314,31.7677 -42.237202,56.59315 -0.862872,4.92567 15.73733,8.74835 15.992403,12.72111 0.284091,4.42471 -11.437377,14.9496 -18.548045,18.39439 -8.32912,9.59987 -10.044564,24.67028 -13.981485,37.47393 l 60.084117,1.91398 z"
       id="path74"
       sodipodi:nodetypes="csscccc" />
    <path
       style="fill:#0c081d;fill-opacity:1;stroke:none;stroke-width:0.264583px;stroke-linecap:butt;stroke-linejoin:miter;stroke-opacity:1"
       d="m 68.332831,173.90944 c 23.925043,11.2659 37.888319,31.7677 42.237199,56.59315 0.86288,4.92567 -15.737327,8.74835 -15.9924,12.72111 -0.284091,4.42471 11.43738,14.9496 18.54805,18.39439 8.32912,9.59987 10.04456,24.67028 13.98148,37.47393 L 67.023043,301.006 Z"
       id="path74-3"
       sodipodi:nodetypes="csscccc" />
    <path
       style="fill:#0d1130;fill-opacity:1;stroke:none;stroke-width:0.264583px;stroke-linecap:butt;stroke-linejoin:miter;stroke-opacity:1"
       d="m 68.530792,210.70996 c 3.351494,-1.1365 -8.517424,-0.50812 -8.932014,-1.8934 -0.521112,-1.7412 7.706603,-4.11509 7.613159,-5.17072 -0.201103,-2.27185 -14.31152,1.22918 -15.267112,0.0355 -2.288643,-2.85886 16.083991,-23.31865 16.083991,-23.31865 l -4.446828,-1.2e-4 2.536529,-2.75018 c -29.84125,13.74211 -39.566481,47.54529 -39.039668,53.35909 0.400831,2.37432 15.213188,7.36065 16.810718,11.88604 1.492076,-5.35025 -13.032751,-10.68344 -11.903609,-12.33718 10.646037,-9.54491 28.1396,-16.96014 36.544834,-19.81038 z"
       id="path919"
       sodipodi:nodetypes="ssssccccccs" />
    <path
       style="fill:#0d1130;fill-opacity:1;stroke:none;stroke-width:0.264583px;stroke-linecap:butt;stroke-linejoin:miter;stroke-opacity:1"
       d="m 69.467545,218.97137 c -0.394303,3.77465 -0.0011,7.58463 -0.09643,11.37862 -0.0054,0.21383 -0.01255,0.42951 -0.06369,0.63721 -0.05114,0.2077 -0.1501,0.40938 -0.312396,0.54871 -0.135325,0.11618 -0.307368,0.18295 -0.482291,0.21777 -0.174922,0.0348 -0.354238,0.0396 -0.532523,0.0446 -0.678334,0.0191 -1.362654,0.0429 -2.030384,-0.0781 -0.667729,-0.121 -1.327364,-0.40071 -1.784524,-0.90222 -0.246022,-0.26989 -0.427752,-0.60012 -0.511342,-0.95562 -0.08359,-0.35549 -0.0673,-0.73574 0.05867,-1.07852 0.162166,-0.44126 0.49261,-0.79901 0.841198,-1.11444 0.348588,-0.31542 0.725786,-0.60393 1.023911,-0.96742 0.633181,-0.77201 0.846088,-1.79689 1.014036,-2.78112 0.167947,-0.98424 0.324537,-2.00794 0.877391,-2.83937 0.185427,-0.27886 0.411196,-0.52865 0.605109,-0.80168 0.193914,-0.27302 0.358635,-0.57844 0.397304,-0.91108 0.03293,-0.28329 -0.02703,-0.5736 0.02644,-0.85374 0.02673,-0.14007 0.08376,-0.27761 0.183058,-0.37996 0.04965,-0.0512 0.109465,-0.0929 0.175853,-0.1189 0.06639,-0.026 0.13939,-0.036 0.209944,-0.0257 0.09714,0.0142 0.186722,0.0666 0.253536,0.1385 0.06681,0.0719 0.111734,0.16245 0.137702,0.25712 0.05194,0.18934 0.02983,0.39002 0.0094,0.5853 z"
       id="path931"
       inkscape:path-effect="#path-effect933"
       inkscape:original-d="m 69.467545,218.97137 c -0.817413,47.17035 0.788446,11.38969 -0.09643,11.37862 -3.792442,-0.0474 -0.352787,0.89999 -0.376087,1.18592 -0.02331,0.28593 -0.665417,0.26215 -1.014814,0.26241 -1.312948,9.9e-4 -2.901747,-0.0369 -3.814908,-0.9803 -0.48312,-0.49911 -0.301517,-1.35583 -0.452671,-2.03414 -0.151154,-0.67831 1.243672,-1.38764 1.865109,-2.08186 0.62144,-0.69422 1.261216,-3.74673 1.891427,-5.62049 0.630211,-1.87376 0.668541,-1.14158 1.002413,-1.71276 0.333873,-0.57119 0.397127,-0.91861 0.595294,-1.37832 0.198168,-0.4597 0.408237,0.54407 0.400667,0.98092 z"
       sodipodi:nodetypes="sssaassssss" />
    <path
       style="fill:#0d1130;stroke:none;stroke-width:0.264583px;stroke-linecap:butt;stroke-linejoin:miter;stroke-opacity:1;fill-opacity:1"
       d="m 40.161911,252.05029 c -5.246988,3.08901 -9.819983,7.18839 -14.833847,10.64295 -0.562725,0.38772 -1.132771,0.76866 -1.64639,1.21942 -1.434099,1.25858 -2.354059,2.99091 -3.180559,4.71067 -0.319181,0.66414 -0.631369,1.33875 -0.797752,2.05658 -0.03285,0.14173 -0.06,0.28869 -0.03502,0.43201 0.01249,0.0717 0.03828,0.14158 0.08006,0.20113 0.04178,0.0595 0.100029,0.10836 0.168099,0.13401 0.07158,0.027 0.151747,0.0275 0.225672,0.008 0.07392,-0.0196 0.141821,-0.0587 0.200634,-0.10761 0.117626,-0.0978 0.197998,-0.23192 0.280292,-0.36088 0.74724,-1.17098 1.831037,-2.11424 3.064473,-2.75314 0.636843,-0.32988 1.311354,-0.58041 1.962413,-0.88125 0.651059,-0.30085 1.287802,-0.65893 1.793821,-1.16719 0.490989,-0.49317 0.839698,-1.10797 1.158238,-1.72669 0.318541,-0.61873 0.615374,-1.25344 1.024577,-1.81632 0.540176,-0.74305 1.257777,-1.33596 1.978401,-1.9057 2.2781,-1.80113 4.705241,-3.49266 6.456516,-5.8093 0.37848,-0.50066 0.723098,-1.02796 1.134033,-1.50235 0.410935,-0.47439 0.898091,-0.90016 1.480328,-1.13449 0.07624,-0.0307 0.155483,-0.0589 0.218683,-0.11145 0.0316,-0.0263 0.05871,-0.0586 0.07555,-0.0961 0.01684,-0.0375 0.02294,-0.0804 0.01346,-0.12033 -0.0091,-0.0386 -0.03253,-0.0731 -0.06316,-0.0983 -0.03063,-0.0252 -0.06822,-0.0412 -0.107128,-0.0488 -0.07781,-0.0153 -0.158385,0.002 -0.233537,0.0276 -0.147697,0.0497 -0.283566,0.12863 -0.417861,0.20769 z"
       id="path935"
       inkscape:path-effect="#path-effect937"
       inkscape:original-d="m 40.161911,252.05029 c -0.13955,0.069 -9.888966,7.09556 -14.833847,10.64295 -4.94488,3.54738 -1.097329,0.81321 -1.64639,1.21942 -0.549062,0.40621 -2.120109,3.14071 -3.180559,4.71067 -1.060451,1.56996 -0.53157,1.37131 -0.797752,2.05658 -0.266182,0.68526 0.142361,0.51169 0.213145,0.76715 0.07078,0.25545 0.47133,-0.30684 0.706598,-0.46066 0.235269,-0.15382 2.043247,-1.83516 3.064473,-2.75314 1.021227,-0.91797 2.504421,-1.36536 3.756234,-2.04844 1.251813,-0.68308 1.455476,-2.36174 2.182815,-3.54301 0.727343,-1.18126 1.3192,-1.2702 1.978401,-1.9057 0.659202,-0.6355 4.304609,-3.8726 6.456516,-5.8093 2.151909,-1.9367 1.743173,-1.75763 2.614361,-2.63684 0.871188,-0.87922 0.205393,-0.2183 0.307695,-0.32784 0.102301,-0.10955 -0.268955,-0.0794 -0.403829,-0.11953 -0.134874,-0.0401 -0.27831,0.13873 -0.417861,0.20769 z" />
    <path
       style="fill:#0d1130;fill-opacity:1;stroke:none;stroke-width:0.264583px;stroke-linecap:butt;stroke-linejoin:miter;stroke-opacity:1"
       d="m 69.152825,235.28569 c -0.477813,-0.14595 -0.990464,-0.17642 -1.482201,-0.0881 -0.394051,0.0708 -0.770469,0.2155 -1.143188,0.36167 -1.709318,0.67034 -3.42172,1.39403 -5.238626,1.65857 -0.436607,0.0636 -0.876918,0.10016 -1.312704,0.16914 -0.164208,0.026 -0.330927,0.0577 -0.476736,0.13756 -0.0729,0.0399 -0.139828,0.0919 -0.192184,0.15645 -0.05236,0.0646 -0.08977,0.14208 -0.102102,0.22429 -0.01958,0.13057 0.02535,0.26483 0.100227,0.37357 0.07488,0.10874 0.177781,0.19504 0.284276,0.27308 0.690657,0.50614 1.558023,0.70638 2.408493,0.80582 0.850471,0.0994 1.713772,0.11078 2.550111,0.29442 0.186027,0.0408 0.373142,0.0914 0.535999,0.19011 0.08143,0.0494 0.156128,0.11071 0.216195,0.1846 0.06007,0.0739 0.105239,0.16062 0.12604,0.25355 0.02263,0.10108 0.016,0.20753 -0.01114,0.30749 -0.02714,0.1 -0.07429,0.19373 -0.131543,0.28005 -0.162602,0.24514 -0.404234,0.4289 -0.662683,0.56938 -0.258449,0.14049 -0.535998,0.24157 -0.808139,0.35324 -0.423484,0.17378 -0.839582,0.37643 -1.199906,0.65875 -0.126334,0.099 -0.246813,0.20918 -0.332578,0.34483 -0.08576,0.13566 -0.134535,0.29997 -0.108057,0.45826 0.01733,0.1036 0.06619,0.20069 0.133288,0.2815 0.0671,0.0808 0.151973,0.14581 0.243925,0.19657 0.183903,0.10154 0.392847,0.14616 0.597896,0.19181 1.654326,0.36834 3.29725,0.89553 4.719344,1.81755 0.07226,0.0469 0.144141,0.0948 0.221524,0.13262 0.07738,0.0378 0.161079,0.0653 0.247139,0.0686 0.08117,0.003 0.162302,-0.0157 0.236857,-0.048 0.07456,-0.0322 0.142842,-0.0777 0.205989,-0.12877 0.126295,-0.10218 0.232665,-0.22691 0.356551,-0.332 0.154181,-0.13079 0.332715,-0.22892 0.506739,-0.33184 0.174025,-0.10292 0.347018,-0.21334 0.483091,-0.36288 0.15912,-0.17486 0.259877,-0.39464 0.341275,-0.61661 0.0814,-0.22197 0.146223,-0.45057 0.246084,-0.66487 0.09484,-0.20352 0.219935,-0.39124 0.328603,-0.58772 0.108669,-0.19648 0.202257,-0.40648 0.225624,-0.62979 0.03451,-0.32983 -0.08593,-0.65357 -0.139445,-0.98086 -0.02676,-0.16364 -0.03665,-0.33236 -0.0022,-0.49455 0.03449,-0.16219 0.116782,-0.31818 0.248472,-0.41894 0.137887,-0.1055 0.314689,-0.14189 0.483886,-0.18083 0.0846,-0.0195 0.169216,-0.0404 0.249808,-0.0727 0.08059,-0.0323 0.157468,-0.0764 0.219137,-0.13747 0.112916,-0.11187 0.16637,-0.27303 0.176603,-0.43165 0.01023,-0.15862 -0.01879,-0.31693 -0.05016,-0.47275 -0.02468,-0.12261 -0.05101,-0.24598 -0.05107,-0.37105 -6e-5,-0.12507 0.02833,-0.25388 0.103425,-0.35389 0.05296,-0.0705 0.125874,-0.12296 0.197345,-0.17464 0.07147,-0.0517 0.143934,-0.10497 0.195405,-0.17659 0.07555,-0.10513 0.09844,-0.24211 0.08079,-0.37036 -0.01765,-0.12825 -0.07291,-0.24878 -0.141538,-0.35855 -0.206409,-0.33017 -0.532133,-0.57086 -0.879974,-0.74586 -0.347841,-0.17499 -0.721617,-0.29104 -1.087375,-0.4246 -0.592018,-0.21618 -1.166677,-0.47988 -1.716632,-0.78772 z"
       id="path939"
       inkscape:path-effect="#path-effect941"
       inkscape:original-d="m 69.152825,235.28569 c -0.572477,-0.26284 -0.98787,-0.0584 -1.482201,-0.0881 -0.494332,-0.0296 -0.76186,0.24138 -1.143188,0.36167 -0.381326,0.12028 -3.492154,1.10598 -5.238626,1.65857 -1.746475,0.55259 -0.874871,0.11302 -1.312704,0.16914 -0.437829,0.0561 -0.513749,0.3458 -0.771022,0.5183 -0.25727,0.1725 0.256601,0.43136 0.384503,0.64665 0.127902,0.21528 3.306001,0.73375 4.958604,1.10024 1.652606,0.36648 0.585756,0.4191 0.878234,0.62826 0.292481,0.20916 -0.09486,0.39195 -0.142684,0.58754 -0.04782,0.19558 -0.980282,0.61534 -1.470822,0.92262 -0.490537,0.30727 -0.799674,0.43943 -1.199906,0.65875 -0.400236,0.21932 -0.293492,0.53566 -0.440635,0.80309 -0.147142,0.26744 0.798124,0.32692 0.975109,0.66988 0.176985,0.34297 2.893402,1.2855 4.719344,1.81755 1.825943,0.53204 0.32647,0.10599 0.468663,0.20121 0.142195,0.0952 0.414307,-0.40331 0.799397,-0.50873 0.385088,-0.10543 0.693148,-0.50131 0.98983,-0.69472 0.296683,-0.19341 0.20969,-0.89917 0.587359,-1.28148 0.377666,-0.38231 0.661061,-0.52994 0.554227,-1.21751 -0.106833,-0.68757 0.139777,-1.32134 0.106867,-1.89435 -0.03291,-0.57301 0.635484,-0.26038 0.952831,-0.39096 0.317344,-0.13059 -0.217055,-0.58845 0.126446,-0.9044 0.3435,-0.31596 0.336781,-0.49725 0.05235,-0.72494 -0.28443,-0.22769 0.262096,-0.23389 0.39275,-0.35123 0.130651,-0.11734 -0.295211,-0.58052 -0.06075,-0.72891 0.234464,-0.14839 -1.056325,-0.6852 -1.967349,-1.17046 -0.911026,-0.48526 -1.144156,-0.52488 -1.716632,-0.78772 z"
       sodipodi:nodetypes="ccsscsssssssssssssssssssssscc" />
  </g>
</svg>
